<?xml version="1.0" encoding="UTF-8"?>
<svg id="Layer_1" data-name="Layer 1" xmlns="http://www.w3.org/2000/svg" viewBox="0 0 841.89 318.64">
  <defs>
    <style>
      .cls-1 {
        fill: #f2c040;
      }
    </style>
  </defs>
  <g>
    <path class="cls-1" d="m136.95,219.58v10.44h-24.07c-9.47,0-12.3,4.51-12.3,10.09v5.66h36.02v9.91h-36.02v23.63h-10.44v-39.12c0-11.95,6.19-20.62,22.04-20.62h24.78Z"/>
    <path class="cls-1" d="m186.09,219.58v39.91c0,5.93,3.01,9.38,9.91,9.38h10.62c6.72,0,9.82-3.45,9.82-9.38v-39.91h10.27v40.71c0,12.57-6.64,19.03-19.38,19.03h-12.57c-12.74,0-19.29-6.46-19.29-19.03v-40.71h10.62Z"/>
    <path class="cls-1" d="m265.51,231.62c1.58-7.22,7.64-12.02,19.52-12.02h29.91v10.44h-29.91c-6.29,0-9.04,2.89-9.04,7.5,0,4.89,3.12,7.08,9.13,7.08h29.4v9.5h-29.67c-6.01,0-9.08,2.38-9.08,7.22s2.89,7.55,9.04,7.55h30.23v10.44h-30.23c-11.93,0-17.94-4.98-19.47-12.11"/>
    <path class="cls-1" d="m601.89,231.62c1.58-7.22,7.64-12.02,19.52-12.02h29.91v10.44h-29.91c-6.29,0-9.04,2.89-9.04,7.5,0,4.89,3.12,7.08,9.13,7.08h29.4v9.5h-29.67c-6.01,0-9.08,2.38-9.08,7.22s2.89,7.55,9.04,7.55h30.23v10.44h-30.23c-11.93,0-17.94-4.98-19.47-12.11"/>
    <path class="cls-1" d="m364.97,219.58v39.03c0,5.75,2.83,10.27,12.21,10.27h23.19v10.44h-23.81c-15.84,0-22.04-8.67-22.04-20.62v-39.12h10.45Z"/>
    <path class="cls-1" d="m483.03,219.58v10.44h-24.07c-9.47,0-12.3,4.51-12.3,10.09v5.66h36.02v9.91h-36.02v23.63h-10.45v-39.12c0-11.95,6.2-20.62,22.04-20.62h24.78Z"/>
    <path class="cls-1" d="m531.81,219.58v39.03c0,5.75,2.83,10.27,12.21,10.27h23.18v10.44h-23.8c-15.85,0-22.04-8.67-22.04-20.62v-39.12h10.44Z"/>
    <path class="cls-1" d="m701.13,219.58l18.32,22.04,19.2-22.04h12.92l-25.58,29.38,25.75,30.36h-12.74l-19.82-23.72-20.35,23.72h-12.92l26.73-31.15-24.25-28.59h12.74Z"/>
  </g>
  <g>
    <path class="cls-1" d="m374.72,39.32h79.05c0,15.17-12.32,27.49-27.49,27.49h-79.05c0-15.17,12.32-27.49,27.49-27.49Z"/>
    <path class="cls-1" d="m486.76,47.23c-4.9-4.89-11.64-7.91-19.09-7.91v73.73c0,12.9-5.23,24.58-13.69,33.04-5.62,5.62-12.67,9.79-20.55,11.97l-.33,1.64c-2.66,13.09-12.94,23.1-25.61,25.84,4.36.8,8.86,1.23,13.46,1.23,40.72,0,73.71-33.01,73.71-73.71v-46.72c0-7.45-3.03-14.2-7.9-19.09Z"/>
    <path class="cls-1" d="m378.7,133c-2.87-6.05-4.47-12.81-4.47-19.95v-12.37h42.1c7.46,0,14.2-3.03,19.09-7.91,4.9-4.89,7.91-11.64,7.91-19.09h-82.35c-7.59,0-13.75,6.15-13.75,13.74v25.64c0,20.35,8.25,38.78,21.59,52.12,3.36,3.36,7.06,6.41,11.02,9.07,4.82,3.25,10.04,5.93,15.58,7.98,1.65.28,3.35.44,5.09.44,14.32,0,26.27-10.17,29.01-23.69-2.78.52-5.65.79-8.57.79-18.66,0-34.78-10.94-42.25-26.76Z"/>
  </g>
</svg>