<?xml version="1.0" encoding="UTF-8"?>
<svg id="Layer_1" data-name="Layer 1" xmlns="http://www.w3.org/2000/svg" viewBox="0 0 379.77 318.64">
  <defs>
    <style>
      .cls-1 {
        fill: #302022;
      }
    </style>
  </defs>
  <path class="cls-1" d="m118.16,44.94h122.66c0,23.54-19.11,42.65-42.65,42.65h-122.66c0-23.54,19.11-42.65,42.65-42.65Z"/>
  <path class="cls-1" d="m292.01,57.21c-7.6-7.58-18.06-12.28-29.62-12.28v114.39c0,20.02-8.12,38.14-21.24,51.26-8.72,8.72-19.66,15.2-31.88,18.58l-.51,2.54c-4.12,20.31-20.08,35.84-39.74,40.09,6.77,1.25,13.74,1.91,20.88,1.91,63.18,0,114.37-51.22,114.37-114.37v-72.5c0-11.56-4.7-22.04-12.26-29.62Z"/>
  <path class="cls-1" d="m124.34,190.29c-4.46-9.38-6.94-19.88-6.94-30.96v-19.2h65.32c11.58,0,22.04-4.7,29.62-12.28,7.6-7.58,12.28-18.06,12.28-29.62h-127.77c-11.78,0-21.34,9.54-21.34,21.32v39.78c0,31.58,12.8,60.18,33.5,80.88,5.22,5.22,10.96,9.94,17.1,14.08,7.48,5.04,15.58,9.2,24.18,12.38,2.56.44,5.2.68,7.9.68,22.22,0,40.76-15.78,45.02-36.76-4.32.8-8.76,1.22-13.3,1.22-28.96,0-53.96-16.98-65.56-41.52Z"/>
</svg>