<?xml version="1.0" encoding="UTF-8"?>
<svg id="Layer_1" data-name="Layer 1" xmlns="http://www.w3.org/2000/svg" viewBox="0 0 840.66 245.11">
  <defs>
    <style>
      .cls-1 {
        fill: #231f20;
      }
    </style>
  </defs>
  <path class="cls-1" d="m99.9,88.85v11.78h-27.16c-10.68,0-13.88,5.09-13.88,11.39v6.39h40.64v11.18h-40.64v26.66h-11.78v-44.14c0-13.48,6.99-23.27,24.86-23.27h27.95Z"/>
  <path class="cls-1" d="m155.34,88.85v45.03c0,6.69,3.39,10.58,11.18,10.58h11.99c7.59,0,11.08-3.89,11.08-10.58v-45.03h11.59v45.93c0,14.18-7.49,21.47-21.87,21.47h-14.18c-14.38,0-21.77-7.29-21.77-21.47v-45.93h11.99Z"/>
  <path class="cls-1" d="m244.95,102.43c1.79-8.15,8.62-13.56,22.02-13.56h33.75v11.77h-33.75c-7.1,0-10.2,3.26-10.2,8.46,0,5.52,3.52,7.99,10.3,7.99h33.17v10.72h-33.48c-6.78,0-10.25,2.68-10.25,8.15s3.26,8.52,10.2,8.52h34.11v11.77h-34.11c-13.46,0-20.24-5.62-21.97-13.67"/>
  <path class="cls-1" d="m624.49,102.43c1.79-8.15,8.62-13.56,22.02-13.56h33.75v11.77h-33.75c-7.1,0-10.2,3.26-10.2,8.46,0,5.52,3.52,7.99,10.3,7.99h33.17v10.72h-33.48c-6.78,0-10.25,2.68-10.25,8.15s3.26,8.52,10.2,8.52h34.11v11.77h-34.11c-13.46,0-20.24-5.62-21.97-13.67"/>
  <path class="cls-1" d="m357.17,88.85v44.04c0,6.49,3.19,11.58,13.78,11.58h26.16v11.78h-26.86c-17.87,0-24.86-9.79-24.86-23.27v-44.14h11.79Z"/>
  <path class="cls-1" d="m490.39,88.85v11.78h-27.16c-10.69,0-13.88,5.09-13.88,11.39v6.39h40.64v11.18h-40.64v26.66h-11.79v-44.14c0-13.48,6.99-23.27,24.86-23.27h27.96Z"/>
  <path class="cls-1" d="m545.42,88.85v44.04c0,6.49,3.2,11.58,13.78,11.58h26.16v11.78h-26.86c-17.88,0-24.86-9.79-24.86-23.27v-44.14h11.78Z"/>
  <path class="cls-1" d="m736.46,88.85l20.67,24.86,21.67-24.86h14.58l-28.86,33.15,29.05,34.25h-14.38l-22.36-26.76-22.97,26.76h-14.58l30.16-35.15-27.36-32.25h14.38Z"/>
</svg>